<mxfile host="app.diagrams.net" modified="2022-03-13T17:27:28.482Z" agent="5.0 (Windows NT 10.0; Win64; x64) AppleWebKit/537.36 (KHTML, like Gecko) Chrome/99.0.4844.51 Safari/537.36 Edg/99.0.1150.36" etag="lDDfQk7DCoakI7tv9qOA" version="17.1.2" type="github">
  <diagram id="5mL2chMBpMJVrQfOxgIs" name="Page-1">
    <mxGraphModel dx="1502" dy="717" grid="1" gridSize="10" guides="1" tooltips="1" connect="1" arrows="1" fold="1" page="1" pageScale="1" pageWidth="827" pageHeight="1169" math="0" shadow="0">
      <root>
        <mxCell id="0" />
        <mxCell id="1" parent="0" />
        <mxCell id="TevNg1dPYTMf77WFP0Eh-1" value="" style="rounded=1;whiteSpace=wrap;html=1;fillColor=#E8F4FF;" vertex="1" parent="1">
          <mxGeometry x="20" y="10" width="800" height="630" as="geometry" />
        </mxCell>
        <mxCell id="TevNg1dPYTMf77WFP0Eh-2" style="edgeStyle=orthogonalEdgeStyle;rounded=0;orthogonalLoop=1;jettySize=auto;html=1;entryX=0;entryY=0.5;entryDx=0;entryDy=0;" edge="1" parent="1" source="TevNg1dPYTMf77WFP0Eh-3" target="TevNg1dPYTMf77WFP0Eh-5">
          <mxGeometry relative="1" as="geometry" />
        </mxCell>
        <mxCell id="TevNg1dPYTMf77WFP0Eh-3" value="车辆驶入" style="ellipse;whiteSpace=wrap;html=1;aspect=fixed;fillColor=#ffe6cc;strokeColor=#d79b00;" vertex="1" parent="1">
          <mxGeometry x="46" y="110" width="80" height="80" as="geometry" />
        </mxCell>
        <mxCell id="TevNg1dPYTMf77WFP0Eh-4" value="" style="edgeStyle=orthogonalEdgeStyle;rounded=0;orthogonalLoop=1;jettySize=auto;html=1;" edge="1" parent="1" source="TevNg1dPYTMf77WFP0Eh-5" target="TevNg1dPYTMf77WFP0Eh-12">
          <mxGeometry relative="1" as="geometry" />
        </mxCell>
        <mxCell id="TevNg1dPYTMf77WFP0Eh-5" value="识别车牌车型" style="rounded=1;whiteSpace=wrap;html=1;" vertex="1" parent="1">
          <mxGeometry x="196" y="120" width="120" height="60" as="geometry" />
        </mxCell>
        <mxCell id="TevNg1dPYTMf77WFP0Eh-6" value="否" style="edgeStyle=orthogonalEdgeStyle;rounded=0;orthogonalLoop=1;jettySize=auto;html=1;entryX=0;entryY=0.5;entryDx=0;entryDy=0;" edge="1" parent="1" source="TevNg1dPYTMf77WFP0Eh-9" target="TevNg1dPYTMf77WFP0Eh-21">
          <mxGeometry relative="1" as="geometry">
            <mxPoint x="542" y="310" as="targetPoint" />
          </mxGeometry>
        </mxCell>
        <mxCell id="TevNg1dPYTMf77WFP0Eh-7" style="edgeStyle=orthogonalEdgeStyle;rounded=0;orthogonalLoop=1;jettySize=auto;html=1;entryX=0.5;entryY=0;entryDx=0;entryDy=0;" edge="1" parent="1" source="TevNg1dPYTMf77WFP0Eh-9" target="TevNg1dPYTMf77WFP0Eh-13">
          <mxGeometry relative="1" as="geometry" />
        </mxCell>
        <mxCell id="TevNg1dPYTMf77WFP0Eh-8" value="是" style="edgeLabel;html=1;align=center;verticalAlign=middle;resizable=0;points=[];" vertex="1" connectable="0" parent="TevNg1dPYTMf77WFP0Eh-7">
          <mxGeometry x="-0.2169" relative="1" as="geometry">
            <mxPoint as="offset" />
          </mxGeometry>
        </mxCell>
        <mxCell id="TevNg1dPYTMf77WFP0Eh-9" value="是否在车型白名单中" style="rhombus;whiteSpace=wrap;html=1;fillColor=#d5e8d4;strokeColor=#82b366;" vertex="1" parent="1">
          <mxGeometry x="386" y="270" width="80" height="80" as="geometry" />
        </mxCell>
        <mxCell id="TevNg1dPYTMf77WFP0Eh-10" value="是" style="edgeStyle=orthogonalEdgeStyle;rounded=0;orthogonalLoop=1;jettySize=auto;html=1;entryX=0.5;entryY=0;entryDx=0;entryDy=0;" edge="1" parent="1" source="TevNg1dPYTMf77WFP0Eh-12" target="TevNg1dPYTMf77WFP0Eh-17">
          <mxGeometry relative="1" as="geometry" />
        </mxCell>
        <mxCell id="TevNg1dPYTMf77WFP0Eh-11" value="否" style="edgeStyle=orthogonalEdgeStyle;rounded=0;orthogonalLoop=1;jettySize=auto;html=1;entryX=0;entryY=0.5;entryDx=0;entryDy=0;" edge="1" parent="1" source="TevNg1dPYTMf77WFP0Eh-12" target="TevNg1dPYTMf77WFP0Eh-9">
          <mxGeometry relative="1" as="geometry" />
        </mxCell>
        <mxCell id="TevNg1dPYTMf77WFP0Eh-12" value="是否存在&lt;br style=&quot;box-sizing: content-box ; margin: 0px ; padding: 0px&quot;&gt;对应车牌记录" style="rhombus;whiteSpace=wrap;html=1;fillColor=#dae8fc;strokeColor=#6c8ebf;" vertex="1" parent="1">
          <mxGeometry x="216" y="270" width="80" height="80" as="geometry" />
        </mxCell>
        <mxCell id="TevNg1dPYTMf77WFP0Eh-13" value="准许" style="ellipse;whiteSpace=wrap;html=1;fillColor=#f8cecc;strokeColor=#b85450;" vertex="1" parent="1">
          <mxGeometry x="391" y="456.25" width="70" height="52.5" as="geometry" />
        </mxCell>
        <mxCell id="TevNg1dPYTMf77WFP0Eh-14" value="是" style="edgeStyle=orthogonalEdgeStyle;rounded=0;orthogonalLoop=1;jettySize=auto;html=1;entryX=0;entryY=0.5;entryDx=0;entryDy=0;" edge="1" parent="1" source="TevNg1dPYTMf77WFP0Eh-17" target="TevNg1dPYTMf77WFP0Eh-13">
          <mxGeometry relative="1" as="geometry" />
        </mxCell>
        <mxCell id="TevNg1dPYTMf77WFP0Eh-15" style="edgeStyle=orthogonalEdgeStyle;rounded=0;orthogonalLoop=1;jettySize=auto;html=1;entryX=0.5;entryY=1;entryDx=0;entryDy=0;" edge="1" parent="1" source="TevNg1dPYTMf77WFP0Eh-17" target="TevNg1dPYTMf77WFP0Eh-18">
          <mxGeometry relative="1" as="geometry">
            <Array as="points">
              <mxPoint x="256" y="570" />
              <mxPoint x="722" y="570" />
            </Array>
          </mxGeometry>
        </mxCell>
        <mxCell id="TevNg1dPYTMf77WFP0Eh-16" value="否" style="edgeLabel;html=1;align=center;verticalAlign=middle;resizable=0;points=[];" vertex="1" connectable="0" parent="TevNg1dPYTMf77WFP0Eh-15">
          <mxGeometry x="-0.6066" y="-2" relative="1" as="geometry">
            <mxPoint as="offset" />
          </mxGeometry>
        </mxCell>
        <mxCell id="TevNg1dPYTMf77WFP0Eh-17" value="支持车牌？" style="rhombus;whiteSpace=wrap;html=1;fillColor=#dae8fc;strokeColor=#6c8ebf;" vertex="1" parent="1">
          <mxGeometry x="204" y="450" width="104" height="65" as="geometry" />
        </mxCell>
        <mxCell id="TevNg1dPYTMf77WFP0Eh-18" value="拒绝" style="ellipse;whiteSpace=wrap;html=1;fillColor=#647687;fontColor=#ffffff;strokeColor=#314354;" vertex="1" parent="1">
          <mxGeometry x="672" y="440" width="100" height="60" as="geometry" />
        </mxCell>
        <mxCell id="TevNg1dPYTMf77WFP0Eh-19" value="是" style="edgeStyle=orthogonalEdgeStyle;rounded=0;orthogonalLoop=1;jettySize=auto;html=1;entryX=0;entryY=0.5;entryDx=0;entryDy=0;" edge="1" parent="1" source="TevNg1dPYTMf77WFP0Eh-21" target="TevNg1dPYTMf77WFP0Eh-24">
          <mxGeometry relative="1" as="geometry" />
        </mxCell>
        <mxCell id="TevNg1dPYTMf77WFP0Eh-20" value="否" style="edgeStyle=orthogonalEdgeStyle;rounded=0;orthogonalLoop=1;jettySize=auto;html=1;entryX=0.5;entryY=1;entryDx=0;entryDy=0;" edge="1" parent="1" source="TevNg1dPYTMf77WFP0Eh-21" target="TevNg1dPYTMf77WFP0Eh-25">
          <mxGeometry relative="1" as="geometry" />
        </mxCell>
        <mxCell id="TevNg1dPYTMf77WFP0Eh-21" value="是否在&lt;br&gt;车型库中" style="rhombus;whiteSpace=wrap;html=1;fillColor=#d5e8d4;strokeColor=#82b366;" vertex="1" parent="1">
          <mxGeometry x="532" y="270" width="80" height="80" as="geometry" />
        </mxCell>
        <mxCell id="TevNg1dPYTMf77WFP0Eh-22" value="否" style="edgeStyle=orthogonalEdgeStyle;rounded=0;orthogonalLoop=1;jettySize=auto;html=1;entryX=0.5;entryY=1;entryDx=0;entryDy=0;" edge="1" parent="1" source="TevNg1dPYTMf77WFP0Eh-24" target="TevNg1dPYTMf77WFP0Eh-26">
          <mxGeometry relative="1" as="geometry" />
        </mxCell>
        <mxCell id="TevNg1dPYTMf77WFP0Eh-23" value="是" style="edgeStyle=orthogonalEdgeStyle;rounded=0;orthogonalLoop=1;jettySize=auto;html=1;entryX=0.5;entryY=0;entryDx=0;entryDy=0;" edge="1" parent="1" source="TevNg1dPYTMf77WFP0Eh-24" target="TevNg1dPYTMf77WFP0Eh-18">
          <mxGeometry relative="1" as="geometry" />
        </mxCell>
        <mxCell id="TevNg1dPYTMf77WFP0Eh-24" value="状态为&lt;br&gt;不支持" style="rhombus;whiteSpace=wrap;html=1;fillColor=#d5e8d4;strokeColor=#82b366;" vertex="1" parent="1">
          <mxGeometry x="682" y="275" width="80" height="70" as="geometry" />
        </mxCell>
        <mxCell id="TevNg1dPYTMf77WFP0Eh-25" value="未知车型" style="shape=process;whiteSpace=wrap;html=1;backgroundOutline=1;fillColor=#fad7ac;strokeColor=#b46504;" vertex="1" parent="1">
          <mxGeometry x="512" y="160" width="120" height="60" as="geometry" />
        </mxCell>
        <mxCell id="TevNg1dPYTMf77WFP0Eh-26" value="其他状态&lt;br&gt;测试中？&lt;br&gt;未知？" style="shape=process;whiteSpace=wrap;html=1;backgroundOutline=1;fillColor=#fad7ac;strokeColor=#b46504;" vertex="1" parent="1">
          <mxGeometry x="662" y="160" width="120" height="60" as="geometry" />
        </mxCell>
        <mxCell id="TevNg1dPYTMf77WFP0Eh-27" value="思考:&lt;br&gt;匹配近似车型？" style="shape=callout;whiteSpace=wrap;html=1;perimeter=calloutPerimeter;fillColor=#e1d5e7;strokeColor=#9673a6;" vertex="1" parent="1">
          <mxGeometry x="376" y="100" width="120" height="80" as="geometry" />
        </mxCell>
        <mxCell id="TevNg1dPYTMf77WFP0Eh-28" value="&lt;font style=&quot;font-size: 30px;&quot;&gt;入口车辆检测判断逻辑&lt;/font&gt;" style="text;html=1;strokeColor=none;fillColor=none;align=center;verticalAlign=middle;whiteSpace=wrap;rounded=0;" vertex="1" parent="1">
          <mxGeometry x="244" y="40" width="340" height="20" as="geometry" />
        </mxCell>
      </root>
    </mxGraphModel>
  </diagram>
</mxfile>
